<svg width="1920" height="9435" viewBox="0 0 1920 9435" fill="none" xmlns="http://www.w3.org/2000/svg">
<g filter="url(#filter0_f_1770_3)">
<circle cx="601" cy="2516" r="374" fill="url(#paint0_radial_1770_3)" fill-opacity="0.08"/>
</g>
<g filter="url(#filter1_b_1770_3)">
<circle cx="-156.5" cy="23.5" r="525.5" fill="#FFDD94" fill-opacity="0.11"/>
</g>
<g opacity="0.11" filter="url(#filter2_b_1770_3)">
<path d="M0 0H1920V15336H0V0Z" fill="url(#paint1_linear_1770_3)"/>
</g>
<g filter="url(#filter3_f_1770_3)">
<circle cx="243.5" cy="7168.5" r="230.5" fill="url(#paint2_radial_1770_3)" fill-opacity="0.1"/>
</g>
<g filter="url(#filter4_f_1770_3)">
<circle cx="776" cy="7633" r="286" fill="url(#paint3_linear_1770_3)" fill-opacity="0.3"/>
</g>
<g filter="url(#filter5_f_1770_3)">
<circle cx="1012.5" cy="7670.5" r="230.5" fill="url(#paint4_linear_1770_3)" fill-opacity="0.14"/>
</g>
<g filter="url(#filter6_f_1770_3)">
<circle cx="1464.5" cy="7511.5" r="283.5" fill="url(#paint5_radial_1770_3)" fill-opacity="0.18"/>
</g>
<g filter="url(#filter7_f_1770_3)">
<circle cx="281.5" cy="7601.5" r="230.5" fill="url(#paint6_radial_1770_3)" fill-opacity="0.18"/>
</g>
<path d="M1605.92 6263.86L1608.79 6237.15L1634.73 6240.64L1637.6 6213.92L1664.31 6216.79" stroke="#EFAB18" stroke-width="5" stroke-linecap="round" stroke-linejoin="round"/>
<path d="M205.969 5383.14L194.174 5358.99L217.991 5348.14L206.196 5324" stroke="#EB6453" stroke-width="5" stroke-linecap="round" stroke-linejoin="round"/>
<path d="M404.168 8483.84L407.026 8466.31C407.115 8465.77 407.629 8465.4 408.174 8465.48L425.7 8468.34C426.579 8468.49 426.846 8469.62 426.123 8470.14L405.739 8484.81C405.016 8485.33 404.024 8484.72 404.168 8483.84Z" stroke="#C46DE3" stroke-width="4"/>
<rect x="152" y="8005" width="24" height="24" rx="12" stroke="#21D4DF" stroke-width="4"/>
<g filter="url(#filter8_f_1770_3)">
<circle cx="1865" cy="6809" r="421" fill="url(#paint7_radial_1770_3)" fill-opacity="0.1"/>
</g>
<g filter="url(#filter9_b_1770_3)">
<path d="M-1 -269H1920V8728H-1V-269Z" fill="white" fill-opacity="0.1"/>
</g>
<path opacity="0.7" d="M2319.81 -101.383L2318.39 -104.944L2314.63 -105.663L799.312 -394.876L788.262 -396.985L791.252 -386.139C813.505 -305.427 826.427 -214.015 839.777 -119.585C845.935 -76.0197 852.185 -31.812 859.483 12.2836C882.495 151.318 915.899 288.588 990.409 396.535C1075.79 520.233 1253.81 573.697 1442.98 558.466C1561.25 558.402 1624.19 518.471 1674.64 475.19C1684.44 466.785 1693.68 458.362 1702.69 450.148C1740.25 415.898 1773.85 385.266 1827.47 374.578C1860.99 367.897 1894.85 368.249 1929.89 370.014C1937.74 370.409 1945.66 370.877 1953.65 371.349C1981.08 372.97 2009.3 374.637 2038 373.569C2112.88 370.784 2191.75 349.413 2277.12 262.138C2344.27 193.484 2354.56 102.002 2348.51 28.7371C2345.48 -7.98907 2338.33 -40.4537 2331.94 -63.7291C2328.74 -75.3752 2325.73 -84.743 2323.51 -91.2192C2322.39 -94.4578 2321.48 -96.9749 2320.84 -98.694C2320.52 -99.5537 2320.27 -100.214 2320.1 -100.665C2320.01 -100.891 2319.94 -101.064 2319.89 -101.184L2319.84 -101.324L2319.82 -101.364L2319.82 -101.376C2319.82 -101.38 2319.81 -101.383 2313.31 -98.7874L2319.81 -101.383Z" stroke="url(#paint8_linear_1770_3)" stroke-width="14"/>
<path d="M2279.31 -108.628C2279.31 -108.628 2365.32 106.711 2239.5 235.289C2077.22 401.137 1941.5 315.5 1808.5 342C1675.5 368.5 1662.96 519.5 1438 519.5C1256.21 534.197 1087.07 482.682 1006.5 366C864.309 160.078 878.091 -159.252 815 -388L2279.31 -108.628Z" fill="url(#paint9_linear_1770_3)" fill-opacity="0.2"/>
<path d="M1048.05 531.365C1048.05 531.365 1038.04 519.686 1047.44 512.263C1047.44 512.263 1054.3 508.111 1059.89 508.443C1059.89 508.443 1051.96 521.737 1054.53 523.06C1057.1 524.382 1062.29 507.611 1062.29 507.611C1062.29 507.611 1077.91 506.095 1082.93 508.51C1082.93 508.51 1069.58 519.433 1072.39 520.083C1075.2 520.732 1089.62 510.012 1089.62 510.012C1089.62 510.012 1104.16 512.486 1103.38 521.352C1102.6 530.218 1097.6 532.954 1095.4 532.716C1093.2 532.478 1080.32 527.568 1080.04 529.372C1079.76 531.176 1087.51 537.066 1092.94 537.342C1092.94 537.342 1082.69 548.641 1075.89 545.382C1069.1 542.123 1068.5 536.951 1064.26 535.011C1060.01 533.072 1056.39 533.078 1058.14 535.056C1059.89 537.033 1067.58 538.955 1070 543.249C1072.43 547.542 1074.61 550.437 1067.56 549.379C1060.52 548.321 1049.07 543.163 1048.56 537.26L1048.05 531.365Z" fill="#4E92F9"/>
<path d="M1096.24 521.599C1096.24 521.599 1056.77 520.077 1048.04 531.364C1048.04 531.364 1046.12 537.139 1040.19 542.396L1039.26 544.915C1039.26 544.915 1046.1 537.706 1048.55 537.274C1048.56 537.268 1044.73 523.283 1096.24 521.599Z" fill="#3A49CD"/>
<path d="M1040.2 542.396C1040.2 542.396 1031.72 548.662 1031.14 559.855L1032.67 559.993C1032.67 559.993 1035.38 548.418 1040.27 543.892C1045.16 539.366 1040.2 542.396 1040.2 542.396Z" fill="#3A49CD"/>
<path d="M1013.06 516.68C1013.06 516.68 1028.98 507.761 1021.55 495.659C1021.55 495.659 1015.6 488.227 1009.23 486.317C1009.23 486.317 1012.63 504.364 1009.23 504.79C1005.84 505.216 1006.88 484.407 1006.88 484.407C1006.88 484.407 990.108 476.337 983.528 476.975C983.528 476.975 993.931 494.607 990.534 494.172C987.137 493.738 975.458 475.914 975.458 475.914C975.458 475.914 958.261 472.729 955.501 482.92C952.742 493.112 957.2 498.201 959.748 498.845C962.296 499.489 978.644 499.268 978.221 501.393C977.797 503.518 966.76 506.912 960.588 505.002C960.588 505.002 967.383 521.776 976.299 520.926C985.215 520.077 987.977 514.555 993.499 514.132C999.021 513.709 1003.05 515.193 1000.29 516.68C997.534 518.167 988.189 517.165 983.731 520.956C979.273 524.747 975.664 527.083 983.942 528.782C992.221 530.48 1007.08 529.419 1010.06 523.048L1013.06 516.68Z" fill="#4E92F9"/>
<path d="M963.371 486.105C963.371 486.105 1007.96 500.543 1013.06 516.668C1013.06 516.668 1012.84 523.885 1017.3 532.167V535.352C1017.3 535.352 1012.63 524.523 1010.08 523.036C1010.08 523.048 1020.06 509.036 963.371 486.105Z" fill="#93B3F4"/>
<path d="M1017.3 532.178C1017.3 532.178 1024.18 542.62 1020.25 555.329L1018.49 554.853C1018.49 554.853 1020.21 540.856 1016.61 533.815C1013.02 526.774 1017.3 532.178 1017.3 532.178Z" fill="#93B3F4"/>
<path d="M1038.39 504.381C1038.39 504.381 1017.4 492.626 1027.19 476.672C1027.19 476.672 1035.03 466.877 1043.43 464.359C1043.43 464.359 1038.95 488.148 1043.43 488.706C1047.91 489.264 1046.5 461.84 1046.5 461.84C1046.5 461.84 1068.61 451.202 1077.29 452.043C1077.29 452.043 1063.58 475.258 1068.05 474.715C1072.53 474.171 1087.92 450.644 1087.92 450.644C1087.92 450.644 1110.6 446.444 1114.23 459.88C1117.87 473.316 1112 480.031 1108.65 480.871C1105.31 481.712 1083.74 481.43 1084.3 484.227C1084.86 487.025 1099.41 491.507 1107.52 488.988C1107.52 488.988 1098.56 511.096 1086.8 509.976C1075.05 508.857 1071.41 501.58 1064.14 501.022C1056.86 500.464 1051.54 502.421 1055.18 504.381C1058.82 506.341 1071.13 505.022 1077.01 510.017C1082.89 515.013 1087.65 518.093 1076.72 520.332C1065.79 522.572 1046.21 521.173 1042.29 512.777L1038.39 504.381Z" fill="#4E92F9"/>
<path d="M1103.88 464.077C1103.88 464.077 1045.11 483.111 1038.39 504.382C1038.39 504.382 1038.68 513.897 1032.8 524.811V529.011C1032.8 529.011 1038.97 514.738 1042.32 512.777C1042.31 512.777 1029.15 494.305 1103.88 464.077Z" fill="#3A49CD"/>
<path d="M1032.79 524.811C1032.79 524.811 1023.73 538.576 1028.89 555.33L1031.22 554.704C1031.22 554.704 1028.96 536.249 1033.7 526.968C1038.44 517.688 1032.79 524.811 1032.79 524.811Z" fill="#3A49CD"/>
<path d="M1037.68 591.664C1043.08 591.664 1048.43 590.6 1053.42 588.534C1058.41 586.467 1062.94 583.439 1066.76 579.62C1070.57 575.802 1073.6 571.269 1075.67 566.281C1077.73 561.292 1078.8 555.945 1078.8 550.545H996.564C996.564 555.945 997.627 561.292 999.693 566.281C1001.76 571.27 1004.79 575.803 1008.61 579.621C1012.42 583.44 1016.96 586.468 1021.95 588.535C1026.94 590.601 1032.28 591.664 1037.68 591.664Z" fill="#EFAB18"/>
<path d="M1047.8 591.349C1042.01 592.069 1036.14 591.552 1030.57 589.83C1025 588.109 1019.86 585.224 1015.49 581.366C1011.12 577.508 1007.62 572.765 1005.22 567.451C1002.82 562.138 1001.58 556.375 1001.57 550.545H1011.79C1011.79 560.566 1015.45 570.242 1022.08 577.755C1028.71 585.269 1037.85 590.103 1047.8 591.349Z" fill="#FFCF69"/>
<path d="M1079.37 593.756H995.993C995.994 592.411 996.529 591.121 997.481 590.17C998.432 589.218 999.723 588.684 1001.07 588.684H1074.29C1075.63 588.684 1076.92 589.218 1077.87 590.17C1078.83 591.121 1079.36 592.411 1079.36 593.756H1079.37Z" fill="#EFAB18"/>
<path d="M1079.74 550.545H995.212V551.806H1079.74V550.545Z" fill="#EFAB18"/>
<path d="M1444.41 579.838C1444.41 579.838 1445.27 593.583 1447.92 593.78C1448.28 593.806 1461.41 593.806 1461.41 593.806L1478.16 593.706C1478.16 593.706 1478.05 589.668 1473.17 588.813C1468.28 587.958 1460.06 584.517 1457.1 578.04C1453.97 571.225 1444.41 579.838 1444.41 579.838Z" fill="#060632"/>
<path d="M1435.47 417.293C1435.47 417.293 1443.38 421.792 1445.59 421.792C1447.81 421.792 1456.51 420.111 1458.93 421.348C1461.36 422.586 1465.74 427.573 1466.57 429.201C1468.04 432.139 1460.61 430.835 1457.09 428.34C1456.84 428.16 1456.55 428.035 1456.25 427.973C1455.95 427.91 1455.63 427.912 1455.33 427.978C1453.51 428.375 1449.72 429.062 1447.9 428.387C1445.44 427.479 1432.5 426.468 1432.5 426.468L1435.47 417.293Z" fill="#FFF0F0"/>
<path d="M1375.25 356C1375.25 356 1383.45 414.313 1397.04 419.535C1403.74 422.112 1433.37 427.954 1442.13 428.542C1442.13 428.542 1444.28 426.799 1443.76 419.726C1443.76 419.726 1412.72 408.33 1408.31 402.135C1401.75 392.91 1412.38 364.455 1404.15 355.794C1395.91 347.134 1382.04 343.393 1375.25 356Z" fill="#B78EC6"/>
<path d="M1378.01 478.853C1380.42 482.852 1383.1 486.681 1386.03 490.314C1394.85 501.446 1404.45 510.626 1406.12 519.301C1406.5 521.188 1407.02 523.045 1407.67 524.855C1408.37 526.842 1409.23 528.931 1410.23 531.091C1413.97 539.22 1419.56 548.327 1425.15 556.608C1434.81 570.917 1443.89 582.86 1443.89 582.86L1460.55 582.151C1459.88 580.479 1452.61 560.719 1442.9 536.572C1438.95 526.769 1434.76 516.339 1430.71 506.286L1429.09 502.277C1427.86 499.2 1426.64 496.171 1425.45 493.223C1416.33 470.545 1409.06 452.49 1409.06 452.49C1409.06 452.49 1372.59 438.678 1368.8 447.626C1365.68 455.014 1368.22 462.255 1378.01 478.853Z" fill="#003E98"/>
<path d="M1405.85 540.575C1405.85 540.575 1394.26 548.018 1395.39 550.437C1395.53 550.757 1401.94 562.224 1401.94 562.224L1410.19 576.815C1410.19 576.815 1413.67 574.758 1412.02 570.056C1410.38 565.354 1409.38 556.538 1413.6 550.772C1418.02 544.721 1405.85 540.575 1405.85 540.575Z" fill="#060632"/>
<path d="M1411.51 553.649C1411.51 553.649 1404.27 547.263 1402.99 542.579C1402.99 542.579 1432.82 506.835 1439.29 498.821C1439.59 498.454 1439.52 498.051 1439.12 497.608C1434.24 492.1 1379.96 480.901 1372.86 469.863C1370.75 466.621 1369.2 463.044 1368.28 459.284C1366.67 452.548 1367.94 447.896 1367.94 447.896L1422.15 446.327C1422.15 446.327 1467.29 474.433 1472.4 493.596C1477.52 512.76 1411.51 553.649 1411.51 553.649Z" fill="#164D9D"/>
<path d="M1439.13 497.617C1434.25 492.109 1379.96 480.91 1372.87 469.872C1370.75 466.63 1369.2 463.053 1368.28 459.293V452.443L1391.33 448.819C1391.33 448.819 1397.86 468.923 1417.21 476.464C1435.34 483.525 1438.77 496.05 1439.13 497.617Z" fill="#003E98"/>
<path d="M1407.32 352.327C1396.35 355.16 1378.18 345 1378.18 345C1378.18 345 1385.23 340.254 1387.85 329.834C1387.98 329.309 1388.1 328.77 1388.21 328.218C1389.36 327.974 1391.53 327.512 1393.84 327.024L1402.22 334.527C1402.22 334.527 1402.03 337.645 1400.98 342.999C1400.8 343.934 1400.59 344.936 1400.35 346.006C1403.04 347.668 1405.41 349.811 1407.32 352.327Z" fill="#FFF0F0"/>
<path d="M1366.57 397.785C1368.14 418.912 1366.07 451.044 1367.85 456.609C1369.39 461.411 1386.91 458.558 1393.91 456.953C1396.5 456.366 1399.63 455.513 1402.87 454.511C1411.91 451.714 1421.75 447.72 1422.81 444.755C1422.85 444.644 1422.88 444.53 1422.9 444.414C1422.99 444.004 1422.99 443.578 1422.88 443.171C1422.53 441.66 1421.18 440.023 1421.02 436.282C1420.84 432.104 1420.86 427.172 1420.71 421.883C1420.71 421.295 1420.69 420.637 1420.63 420.043V419.826V419.488C1420.48 413.587 1420.17 407.383 1419.81 401.232C1419.58 397.368 1419.32 393.542 1419.02 389.874C1418.23 380.409 1417.17 371.992 1415.76 366.659C1413.46 357.986 1408.41 352.329 1403.79 348.183L1400.46 345.324C1396.74 346.138 1392.34 345.597 1388.36 343.713C1384.06 341.656 1382.57 340.204 1381.82 340.757C1371.86 348.447 1364.71 371.957 1366.57 397.785Z" fill="#CCABD8"/>
<path d="M1402.87 454.512C1411.91 451.714 1421.75 447.72 1422.81 444.755C1422.85 444.644 1422.88 444.53 1422.9 444.414C1422.9 444 1422.9 443.585 1422.88 443.171C1422.53 441.661 1421.18 440.024 1421.02 436.283C1420.84 432.104 1420.86 427.173 1420.71 421.883C1420.71 421.295 1420.69 420.637 1420.63 420.043V419.826V419.488L1384.09 372.968C1384.09 372.968 1359.54 424.09 1402.87 454.512Z" fill="#B78EC6"/>
<path d="M1402.23 334.527C1402.23 334.527 1402.04 337.645 1400.99 342.999C1392.81 340.354 1389.1 332.966 1387.86 329.834C1388 329.309 1388.12 328.77 1388.22 328.218C1389.37 327.974 1391.54 327.512 1393.86 327.024L1402.23 334.527Z" fill="#FFDCDB"/>
<path d="M1403.32 339.25C1403.32 339.25 1385.48 336.273 1387.51 325.194C1389.54 314.115 1388.59 306.266 1400.07 307.697C1411.54 309.128 1412.98 313.762 1413.2 317.624C1413.42 321.485 1408.01 339.74 1403.32 339.25Z" fill="#FFF0F0"/>
<path d="M1473.53 434.073L1475.1 434.584L1488.48 393.393L1486.91 392.882L1473.53 434.073Z" fill="#3A49CD"/>
<path d="M1429.65 433.644L1475.09 434.611L1475.15 431.894L1429.71 430.926L1429.65 433.644Z" fill="#3A49CD"/>
<path d="M1430.58 435.769C1430.58 435.769 1445.18 439.618 1450.66 439.213C1456.14 438.807 1460.69 436.206 1461.38 434.846C1462.07 433.485 1463.51 431.075 1459.78 431.522C1456.05 431.969 1450.97 432.759 1450.81 432.042C1450.65 431.325 1453.85 431.393 1453.85 431.393C1453.85 431.393 1454.81 429.988 1453.6 429.923C1452.38 429.859 1448.83 428.91 1447.51 429.568C1446.2 430.226 1444.98 432.662 1444.02 432.56C1443.06 432.457 1431.8 427.49 1431.8 427.49L1430.58 435.769Z" fill="#FFF0F0"/>
<path d="M1378.87 358.395C1378.87 358.395 1380.6 417.255 1393.52 423.928C1399.9 427.229 1428.7 436.303 1437.35 437.852C1437.35 437.852 1439.67 436.356 1439.94 429.253C1439.94 429.253 1410.34 414.507 1406.64 407.86C1401.14 397.971 1414.84 370.861 1407.62 361.343C1400.39 351.824 1387.01 346.611 1378.87 358.395Z" fill="#CCABD8"/>
<path d="M1387.85 329.834C1387.85 329.834 1387.65 326.031 1390 323.854C1390 323.854 1389.18 320.033 1390.69 319.413C1392.19 318.793 1392.51 321.991 1393.2 321.488C1393.89 320.986 1396.97 318.596 1398.29 315.079C1399.61 311.561 1411.68 315.822 1413.09 316.454C1414.5 317.086 1419.02 314.764 1419.9 312.881C1419.9 312.881 1417.39 310.868 1416.26 309.354C1415.13 307.841 1407.21 297.67 1396.15 300.559C1385.09 303.447 1383.59 308.728 1384.22 313.251C1384.84 317.774 1383.32 328.315 1387.85 329.834Z" fill="#120E59"/>
<path d="M1052.54 352.429L1062.06 351.521C1062.43 351.485 1062.8 351.57 1063.12 351.762C1063.44 351.955 1063.69 352.246 1063.84 352.591L1071.02 369.885C1071.13 370.138 1071.17 370.411 1071.15 370.683C1071.12 370.954 1071.04 371.217 1070.9 371.45C1070.76 371.684 1070.57 371.882 1070.34 372.028C1070.11 372.175 1069.85 372.266 1069.58 372.295L1059.67 373.241C1059.29 373.275 1058.92 373.186 1058.59 372.987C1058.27 372.789 1058.02 372.491 1057.88 372.139L1051.08 354.801C1050.99 354.549 1050.95 354.28 1050.98 354.012C1051 353.745 1051.09 353.487 1051.23 353.258C1051.37 353.029 1051.56 352.835 1051.79 352.692C1052.02 352.548 1052.27 352.459 1052.54 352.429Z" fill="#0D0D38"/>
<path d="M1173.21 580.979L1168.17 583.659C1168.17 583.659 1140.86 554.704 1134.29 526.918C1133.12 521.955 1132.65 517.062 1133.15 512.422C1133.15 512.422 1132.75 511.164 1132.06 508.936C1132.03 508.839 1132 508.739 1131.96 508.643C1131.67 507.667 1131.3 506.518 1130.89 505.219C1129.57 501.019 1127.76 495.274 1125.7 488.733C1120.94 473.681 1110.07 439.73 1105.42 425.609L1138.81 413.528C1138.81 413.528 1142.6 422.177 1148.05 445.681C1148.89 448.749 1149.73 452.146 1150.52 455.837C1151.4 460.025 1152.24 464.603 1152.93 469.546C1154.23 478.872 1154.89 488.274 1154.93 497.69C1154.95 501.895 1154.85 506.256 1154.6 510.755C1154.42 514.056 1154.89 518.452 1155.82 523.454C1160.04 546.302 1173.21 580.979 1173.21 580.979Z" fill="#164D9D"/>
<path d="M1191.5 593.756H1164.51C1164.51 593.756 1163.5 589.451 1165.27 586.521C1166.84 583.929 1166.24 582.454 1165.08 580.309C1166.51 580.929 1168.06 581.221 1169.62 581.164C1170.97 581.088 1172.39 580.476 1173.64 579.753C1174.81 581.076 1179.77 586.715 1181.33 587.832C1183.09 589.099 1190.95 588.649 1191.5 593.756Z" fill="#0D0D38"/>
<path d="M1152.93 469.528L1131.96 508.613C1131.67 507.638 1131.3 506.489 1130.89 505.19C1129.57 500.99 1127.76 495.245 1125.7 488.703C1120.94 473.651 1110.07 439.701 1105.42 425.58L1138.81 413.499C1138.81 413.499 1142.6 422.148 1148.05 445.651C1148.89 448.719 1149.73 452.117 1150.52 455.808C1151.41 460.007 1152.24 464.585 1152.93 469.528Z" fill="#003E98"/>
<path d="M1062.03 383.309C1061.87 383.456 1053.87 375.275 1049.59 370.743L1053.87 368.14L1077.24 382.807L1062.03 383.309Z" fill="#FFF1F0"/>
<path d="M1104.89 585.307C1104.89 585.307 1104.26 589.892 1106.02 593.756H1117.19C1117.19 593.756 1117.28 590.418 1114.43 586.227C1111.58 582.037 1104.89 585.307 1104.89 585.307Z" fill="#0D0D38"/>
<path d="M1126.92 286.949C1127.08 286.235 1128.98 278.58 1140.86 280.229C1140.86 280.229 1134.94 279.911 1133.49 282.286C1133.49 282.286 1137.99 279.82 1141.03 281.404C1144.08 282.988 1144.99 288.948 1144.68 290.808C1144.38 292.668 1141.55 298.337 1139.42 298.49C1138.57 298.515 1137.73 298.37 1136.94 298.064C1137.37 299.076 1137.73 300.114 1138.03 301.17C1141.06 311.664 1134.56 320.271 1130.75 318.532C1128.31 317.418 1126.82 321.658 1126.82 321.658L1105.47 297.208C1105.47 297.208 1117.89 279.899 1126.92 286.949Z" fill="#12123C"/>
<path d="M1105.07 352.515C1107.86 354.448 1111.35 356.041 1115.73 357.055C1132.17 360.852 1138.47 346.958 1140.84 337.422C1139.11 336.47 1137.21 335.888 1135.25 335.711C1134.08 335.57 1132.81 335.479 1131.78 335.417C1129.93 334.004 1127.18 328.218 1126.57 319.234L1125.8 319.443L1112.85 322.987C1112.85 322.987 1113.44 327.101 1113.73 330.998C1113.95 334.045 1113.99 336.954 1113.41 337.665C1112.4 337.886 1111.8 338.03 1111.8 338.03C1109.1 342.632 1106.84 347.482 1105.07 352.515Z" fill="#FFF1F0"/>
<path d="M1112.86 322.998C1112.86 322.998 1113.45 327.112 1113.74 331.009C1121.09 330.274 1124.49 323.286 1125.82 319.454L1112.86 322.998Z" fill="#FFDCDB"/>
<path d="M1110.67 326.866C1110.67 326.866 1128.09 325.905 1127.33 315.064C1126.56 304.223 1128.29 296.8 1117.14 296.956C1105.98 297.111 1104.12 301.399 1103.49 305.078C1102.87 308.757 1106.12 326.836 1110.67 326.866Z" fill="#FFF1F0"/>
<path d="M1103.58 299.016C1106.03 295.563 1108.12 296.133 1109.33 297.032C1118.46 291.119 1125.14 298.41 1125.14 298.41C1126.87 306.104 1132.78 310.165 1132.78 310.165C1132.78 310.165 1129.76 312.351 1122.31 310.997C1120.03 310.582 1117.93 309.139 1116.09 307.335C1118.25 310.345 1120.8 313.048 1123.69 315.366C1114.67 311.958 1110.29 300.062 1109.85 298.801C1108.86 299.832 1106.91 302.054 1106.42 304.132C1105.75 306.953 1105.76 312.654 1104.09 312.589C1104.1 312.581 1099.89 304.194 1103.58 299.016Z" fill="#12123C"/>
<path d="M1107.85 337.166C1107.85 337.166 1136.23 330.275 1148.57 340.454L1142.4 426.462L1086.9 413.052C1086.9 413.052 1088.46 407.61 1099.11 393.137C1109.75 378.664 1105.12 357.44 1107.85 337.166Z" fill="#FFF1F0"/>
<path d="M1124.4 416.887C1124.4 416.887 1124.36 417.181 1124.31 417.734C1124.28 417.972 1124.25 418.263 1124.21 418.598C1123.97 420.828 1123.52 425.104 1122.94 430.667C1121.42 445.252 1119.03 468.682 1117.4 487.172C1116.12 501.631 1115.31 513.074 1115.75 514.911C1117.07 520.439 1115.75 586.536 1115.75 586.536C1111.03 588.799 1103.88 586.536 1103.88 586.536C1103.88 586.536 1091.32 526.974 1093.07 518.696C1094.83 510.418 1091.9 503.35 1091.9 503.35C1082.14 457.915 1083.21 432.733 1085.14 420.678C1085.51 418.191 1086.07 415.735 1086.81 413.331C1086.99 412.715 1087.22 412.11 1087.48 411.521C1109.01 405.714 1124.4 416.887 1124.4 416.887Z" fill="#164D9D"/>
<path d="M1142.41 426.459C1136.23 429.04 1129.63 430.466 1122.94 430.667C1117.55 430.822 1112.17 430.312 1106.92 429.148C1096.28 426.832 1088.17 422.547 1085.15 420.678C1085.52 418.191 1086.08 415.736 1086.82 413.332C1093.37 408.665 1109.57 413.129 1122.8 418.078L1124.21 418.612C1134.35 422.474 1142.41 426.459 1142.41 426.459Z" fill="#003E98"/>
<path d="M1152.4 364.984C1151.03 375.331 1145.55 387.994 1143.58 394.809C1143.58 394.809 1146.85 418.471 1143.73 424.966C1143.37 425.709 1142.93 426.227 1142.4 426.459C1130.82 431.502 1085.75 426.606 1083.85 412.059C1083.16 406.769 1101.02 388.194 1102.07 385.94C1102.5 385.005 1102.95 381.984 1100.87 375.719C1097.9 384.867 1092.42 395.435 1086.9 397.236C1080.84 399.217 1056.89 381.367 1056.89 381.367C1056.89 381.367 1056.75 379.198 1059.78 377.147C1061.73 375.828 1066.2 375.384 1066.2 375.384L1081.52 382.24C1083.44 378.949 1088.23 356.191 1093.57 345.918C1097.59 338.195 1108.32 337.075 1108.32 337.075C1108.32 337.075 1112.79 344.163 1123.61 343.158C1134.42 342.153 1136.39 335.538 1136.39 335.538C1136.39 335.538 1145.97 336.811 1148.93 339.194C1149.44 339.614 1154.19 351.431 1152.4 364.984Z" fill="#CCABD8"/>
<path d="M1145.01 394.997C1145.01 394.997 1146.86 418.471 1143.74 424.966C1135.31 420.734 1124.32 411.601 1127.66 397.324C1132.52 376.586 1152.4 364.999 1152.4 364.999C1151.03 375.331 1146.97 388.182 1145.01 394.997Z" fill="#B78EC6"/>
<path d="M1136.39 378.905C1136.39 378.905 1124.39 380.644 1123.43 381.55C1122.47 382.455 1119.16 387.653 1119.57 389.464C1119.98 391.274 1119.94 393.143 1120.67 393.014C1121.41 392.884 1123.8 388.282 1124.71 388.071C1125.62 387.859 1126.36 387.239 1126.47 387.644C1126.58 388.05 1124.63 389.995 1124.72 390.533C1124.82 391.071 1126.36 390.439 1127.05 389.372C1127.74 388.306 1129.46 387.774 1129.72 387.11C1129.98 386.446 1131.17 384.241 1132.79 384.341C1134.4 384.441 1136.39 378.905 1136.39 378.905Z" fill="#FFF1F0"/>
<path d="M1148.07 378.431L1136.39 378.904L1132.4 384.35L1148.28 384.882L1148.07 378.431Z" fill="#FFF1F0"/>
<path d="M1136.39 335.544C1136.39 335.544 1150.31 337.195 1154.14 343.164C1158.99 350.711 1176.11 375.74 1175.74 383.313C1175.74 383.313 1165.07 387.562 1136.4 385.285C1136.4 385.285 1135.88 380.947 1141.91 377.468C1141.91 377.468 1157.31 375.36 1159 373.865L1147.57 361.719L1136.39 335.544Z" fill="#CCABD8"/>
<path d="M1050.46 352.618L1059.98 351.71C1060.35 351.676 1060.72 351.762 1061.04 351.954C1061.36 352.147 1061.61 352.435 1061.76 352.779L1068.94 370.074C1069.05 370.326 1069.09 370.6 1069.07 370.872C1069.05 371.145 1068.97 371.409 1068.83 371.644C1068.69 371.878 1068.49 372.076 1068.26 372.222C1068.03 372.368 1067.77 372.457 1067.5 372.483L1057.59 373.43C1057.21 373.463 1056.84 373.374 1056.51 373.175C1056.19 372.977 1055.94 372.68 1055.8 372.328L1049.01 354.992C1048.91 354.741 1048.88 354.471 1048.9 354.203C1048.92 353.934 1049.01 353.675 1049.15 353.445C1049.29 353.215 1049.48 353.021 1049.71 352.877C1049.94 352.734 1050.19 352.645 1050.46 352.618Z" fill="#120E59"/>
<path d="M1049.6 370.743C1049.6 370.743 1047.09 366.409 1047.28 365.342C1047.46 364.275 1050.07 359.321 1051.39 358.827C1053.78 357.945 1057.13 357.405 1056.21 359.917C1055.6 361.578 1053.19 363.982 1053.61 364.734C1054.03 365.486 1053.87 368.14 1053.87 368.14L1049.6 370.743Z" fill="#FFF1F0"/>
<path d="M1428.54 557.427C1424.95 579.158 1401.55 592.997 1377.55 592.997H1330L1333.72 466.332C1333.72 466.332 1379.08 452.537 1390.46 465.66C1400.45 477.158 1427.52 522.67 1428.94 549.608C1429.09 552.221 1428.95 554.841 1428.54 557.427Z" fill="#A8C5EF"/>
<path d="M1308.65 479.57C1308.65 479.57 1369.77 448.375 1381.35 468.752C1387.49 479.573 1404.41 522.742 1405.66 549.831C1406.87 576.156 1384.06 593.462 1360.6 593.462H1318.94L1308.65 479.57Z" fill="#3662C1"/>
<path d="M1320.14 496.873C1319.63 499.518 1314.68 501.986 1307.33 504.161C1306.04 504.552 1304.68 504.928 1303.24 505.286C1278.25 511.672 1233.98 515.234 1229.76 513.353C1223.93 510.749 1188.14 383.6 1188.14 383.6C1188.14 383.6 1222.3 382.316 1249.43 381.69C1258.71 381.478 1267.17 381.343 1273.16 381.361C1273.84 381.361 1274.53 381.409 1275.21 381.505C1277.53 381.779 1279.67 382.875 1281.25 384.593C1285.62 389.295 1286.7 398.558 1290.74 408.805C1294.74 418.941 1299.65 431.586 1304.31 444.138C1305.5 447.37 1306.69 450.603 1307.83 453.777C1308.16 454.676 1308.48 455.568 1308.79 456.454C1315.68 475.702 1320.97 492.579 1320.14 496.873Z" fill="#BED2FA"/>
<path d="M1428.91 557.692C1425.5 579.548 1403.19 593.465 1380.32 593.465H1358.1C1372.92 583.421 1386.32 552.473 1428.91 557.692Z" fill="#8EB0E1"/>
<path d="M1308.79 456.454C1307.66 456.269 1306.19 456.028 1304.53 455.746C1304.21 455.437 1303.95 455.077 1303.75 454.679C1303.08 453.21 1303.54 448.984 1304.3 444.138C1299.65 431.587 1294.74 418.942 1290.74 408.806C1286.7 398.559 1285.62 389.287 1281.25 384.594C1279.67 382.875 1277.53 381.779 1275.21 381.505C1271.61 381.555 1267.8 381.617 1263.87 381.691C1262.47 384.459 1260.07 387.068 1255.92 389.255C1237.38 399.011 1251.13 419.115 1251.13 419.115C1251.26 419.206 1258.48 433.562 1258.48 433.562C1258.45 432.56 1259.42 430.764 1261.09 428.481C1262.32 437.062 1264.32 445.819 1266.71 452.099C1265.4 458.726 1262.04 468.597 1260.24 476.146C1258.8 482.171 1258.36 486.708 1260.74 486.931C1261.03 486.957 1261.33 486.957 1261.62 486.931C1261.47 489.225 1261.97 491.512 1263.07 493.535C1267.71 502.512 1290.06 504.114 1307.33 504.161C1314.67 501.986 1319.62 499.524 1320.13 496.873C1320.97 492.58 1315.67 475.703 1308.79 456.454Z" fill="#93B3F4"/>
<path d="M1393.24 573.893C1384.49 586.042 1371.08 593.833 1356.14 593.583L1291.9 593.615H1261.12L1295.75 479.593C1295.75 479.593 1383.4 470.874 1394.19 482.503C1399.21 487.901 1402.03 512.348 1403.6 536.992C1404.5 550.88 1400.46 563.872 1393.24 573.893Z" fill="#5076C9"/>
<path d="M1393.24 573.894C1384.5 586.042 1371.08 593.833 1356.14 593.583L1291.9 593.615C1299.46 587.268 1323.23 569.262 1348.69 570.106C1367.98 570.77 1383.31 570.491 1393.24 573.894Z" fill="#3662C1"/>
<path d="M1314.27 399.764C1314.27 399.764 1319.6 407.663 1322.65 424.267C1325.31 438.807 1327.65 444.176 1331.5 447.159C1335.36 450.142 1356.81 458.946 1356.81 458.946L1355.2 462.705C1355.2 462.705 1323.76 458.42 1320.23 453.166C1316.7 447.911 1303.23 416.861 1304.28 409.711C1305.32 402.561 1314.27 399.764 1314.27 399.764Z" fill="#FFECEC"/>
<path d="M1391.25 573.221C1390.96 576.289 1395.24 577.041 1400.18 577.279C1405.13 577.517 1403.63 578.54 1410.41 579.765C1417.18 580.99 1419.9 579.139 1420.4 578.222C1420.84 577.411 1417.68 576.142 1414.33 574.696C1413.9 574.516 1413.48 574.331 1413.06 574.146C1409.28 572.486 1407.16 569.098 1404.21 565.953C1401.42 562.979 1398.77 553.449 1398.77 553.449L1389.57 551.483C1389.57 551.483 1392.15 560.058 1393.05 563.72C1393.58 565.874 1392.8 568.281 1392.11 570.114C1391.68 571.106 1391.39 572.151 1391.25 573.221Z" fill="#FDB3B1"/>
<path d="M1400.18 577.279C1405.12 577.526 1403.63 578.54 1410.4 579.765C1417.18 580.99 1419.89 579.139 1420.39 578.222C1420.83 577.411 1417.68 576.142 1414.32 574.696L1414.27 574.754C1410.92 575.72 1407.38 575.762 1404.01 574.875C1399.52 573.658 1395.19 570.981 1392.1 570.114C1391.68 571.104 1391.4 572.146 1391.25 573.212C1390.97 576.277 1395.24 577.035 1400.18 577.279Z" fill="#060632"/>
<path d="M1299.56 464.018C1299.56 464.018 1360.75 459.413 1372.27 466.684C1383.79 473.954 1402.27 558.645 1402.27 558.645C1402.27 558.645 1401.13 559.559 1398.58 559.82C1396.22 560.076 1391 558.683 1391 558.683C1391 558.683 1364.45 520.791 1362.58 511.246C1360.71 501.701 1361.16 493.182 1356.9 492.956C1352.65 492.729 1299.56 499.421 1291.53 485.262C1283.5 471.104 1290.13 457.109 1290.13 457.109L1299.56 464.018Z" fill="#B78EC6"/>
<path d="M1367.85 583.051C1367.56 586.116 1371.84 586.871 1376.78 587.109C1381.72 587.347 1380.23 588.367 1387.01 589.595C1393.79 590.823 1396.5 588.966 1397 588.052C1397.44 587.238 1394.29 585.969 1390.93 584.526C1390.51 584.347 1390.09 584.161 1389.66 583.976C1385.88 582.313 1383.76 578.925 1380.82 575.783C1378.03 572.806 1375.38 563.279 1375.38 563.279L1366.17 561.31C1366.17 561.31 1368.75 569.888 1369.65 573.55C1370.18 575.704 1369.4 578.111 1368.71 579.941C1368.29 580.935 1368 581.981 1367.85 583.051Z" fill="#FDB3B1"/>
<path d="M1376.77 587.109C1381.71 587.356 1380.22 588.367 1387 589.595C1393.77 590.823 1396.48 588.966 1396.99 588.052C1397.42 587.238 1394.27 585.969 1390.92 584.526L1390.87 584.582C1387.52 585.549 1383.97 585.592 1380.6 584.705C1376.12 583.486 1371.78 580.808 1368.7 579.941C1368.28 580.933 1367.99 581.975 1367.85 583.042C1367.56 586.116 1371.82 586.856 1376.77 587.109Z" fill="#060632"/>
<path d="M1287.58 467.815C1287.58 467.815 1341.95 470.389 1353.17 478.1C1364.39 485.812 1379.56 571.152 1379.56 571.152C1379.56 571.152 1378.38 572.033 1375.83 572.198C1373.45 572.362 1368.3 570.767 1368.3 570.767C1368.3 570.767 1343.24 531.87 1341.74 522.26C1340.25 512.651 1341.03 504.155 1336.78 503.746C1332.54 503.338 1279.23 507.964 1271.76 493.514C1264.28 479.064 1287.58 467.815 1287.58 467.815Z" fill="#CCABD8"/>
<path d="M1306.95 348.198C1304.54 346.605 1301.54 346.249 1299.43 346.235C1300.02 345.712 1301.09 345.579 1301.09 345.579C1299.8 345.285 1296.81 346.396 1296.81 346.396C1279.14 338.203 1274.52 364.704 1274.47 370.931C1274.43 377.159 1274 384.297 1264.59 389.254C1246.05 399.011 1259.8 419.115 1259.8 419.115C1259.93 419.206 1267.15 433.564 1267.15 433.564C1267.02 428.521 1291.91 403.619 1304.5 396.504C1307.73 392.39 1309.28 384.808 1309.4 384.212C1308.49 390.233 1307.22 393.562 1306.16 395.414C1317.02 386.692 1313.34 352.418 1306.95 348.198Z" fill="#A83F3F"/>
<path d="M1285.29 390.665C1285.29 390.665 1290.09 390.874 1295.15 391.353C1298.59 391.679 1302.26 392.058 1304.2 392.869C1308.99 394.87 1308.48 403.354 1298.43 401.782C1288.38 400.21 1284.59 393.195 1285.29 390.665Z" fill="#FDB3B1"/>
<path d="M1303.78 396.851C1303.84 396.88 1305.21 404.148 1298.63 403.857C1294.31 403.666 1284.99 398.438 1285.81 394.747C1286.21 392.983 1289.47 388.426 1290.13 377.996L1290.91 378.205L1304.14 381.752C1304.14 381.752 1303.55 385.951 1303.28 389.924C1303.05 393.266 1303.04 396.442 1303.78 396.851Z" fill="#FFF0F0"/>
<path d="M1304.14 381.758C1304.14 381.758 1303.55 385.957 1303.28 389.931C1295.79 389.219 1292.29 382.111 1290.91 378.211L1304.14 381.758Z" fill="#FFDCDB"/>
<path d="M1289.63 376.659C1289.63 376.659 1286.1 370.194 1285.51 364.813C1285.09 360.993 1287.96 347.055 1301.95 350.02C1304.76 350.602 1307.41 351.807 1309.7 353.546C1312.64 355.821 1316.76 360.599 1310.99 372.522L1309.43 376.577L1289.63 376.659Z" fill="#A83F3F"/>
<path d="M1306.39 385.687C1306.39 385.687 1288.63 384.806 1289.35 373.744C1290.07 362.683 1288.27 355.131 1299.63 355.23C1311 355.33 1312.93 359.694 1313.59 363.459C1314.24 367.223 1311.03 385.634 1306.39 385.687Z" fill="#FFF0F0"/>
<path d="M1307.75 355.5C1307.75 355.5 1302.03 368.137 1294.44 369.562C1286.86 370.987 1283.76 368.769 1283.76 368.769C1283.76 368.769 1289.78 364.607 1291.49 356.755C1291.49 356.755 1304.49 349.082 1307.75 355.5Z" fill="#A83F3F"/>
<path d="M1306.47 356.461C1306.47 356.461 1309.91 359.6 1310.61 362.474C1311.3 365.348 1311.31 371.167 1313.02 371.084C1313.02 371.084 1317.27 362.512 1313.48 357.252C1309.47 351.683 1306.47 356.461 1306.47 356.461Z" fill="#A83F3F"/>
<path d="M1324.17 464.947C1322.73 466.666 1318.24 467.195 1313.44 467.982C1309.67 468.605 1305.7 469.387 1302.89 471.045C1296.48 474.803 1275.56 487.501 1269.43 486.931C1267.05 486.708 1267.49 482.17 1268.93 476.149C1271.2 466.639 1275.95 453.433 1275.95 447.691C1275.95 444.555 1276.99 437.138 1278.38 428.66C1278.49 427.975 1278.61 427.287 1278.73 426.602C1281.48 410.116 1285.29 390.677 1285.29 390.677C1285.29 390.677 1289.55 399.954 1297.84 399.954C1306.13 399.954 1304.2 392.875 1304.2 392.875C1304.2 392.875 1311.77 393.757 1313.56 395.69C1315.34 397.624 1319.88 405.937 1320.78 408.206C1320.78 408.206 1320.96 411.092 1313.81 412.467C1313.81 412.467 1315.55 420.308 1315.76 425.533C1315.91 429.391 1313.11 441.472 1312.32 448.987C1312.03 451.649 1312 453.738 1312.43 454.685C1312.99 455.898 1314.78 457.106 1316.81 458.293C1320.84 460.639 1325.87 462.904 1324.17 464.947Z" fill="#164D9D"/>
<path d="M1316.81 458.287C1321.4 466.11 1304.36 468.464 1301.55 470.119C1295.14 473.88 1275.56 487.51 1269.43 486.931C1267.05 486.708 1267.49 482.17 1268.93 476.149C1271.2 466.639 1275.95 453.433 1275.95 447.691C1275.95 444.555 1276.99 437.138 1278.38 428.659L1285.76 421.571C1285.76 421.571 1293.67 442.013 1301.21 445.375C1304.79 446.916 1308.51 448.123 1312.32 448.981C1312.03 451.643 1312 453.732 1312.43 454.679C1312.99 455.892 1314.78 457.1 1316.81 458.287Z" fill="#003E98"/>
<path d="M1283.03 396.784C1283.03 396.784 1276.72 392.963 1270.61 400.222C1264.51 407.48 1274.95 459.463 1283.99 462.134C1294.03 465.1 1323.05 461.658 1323.05 461.658L1322.49 457.124C1322.49 457.124 1291.6 451.202 1290.32 449.554C1289.04 447.905 1286.23 397.624 1283.03 396.784Z" fill="#FFF0F0"/>
<path d="M1285.29 390.665C1285.29 390.665 1272.33 391.841 1268.56 396.096C1264.8 400.351 1263.7 411.912 1263.7 411.912C1263.7 411.912 1275.11 421.125 1288.86 417.548L1285.29 390.665Z" fill="#164D9D"/>
<path d="M1343.2 464.089H1326.08V466.111H1343.2V464.089Z" fill="#EB6453"/>
<path d="M1339.55 465.834C1339.71 465.164 1355.28 440.717 1355.28 440.717H1389.93L1372.55 465.176L1339.55 465.834Z" fill="#EB6453"/>
<path d="M1341 466.111C1341.17 465.441 1356.79 440.717 1356.79 440.717H1389.93L1373.4 466.111H1341Z" fill="#C22511"/>
<path d="M1370.21 453.495C1370.03 453.995 1369.7 454.43 1369.27 454.748C1368.84 455.067 1368.33 455.255 1367.8 455.29C1366.81 455.29 1366.29 454.485 1366.63 453.495C1366.81 452.995 1367.14 452.56 1367.57 452.242C1368 451.924 1368.51 451.736 1369.04 451.702C1370.03 451.702 1370.56 452.504 1370.21 453.495Z" fill="#CCABD8"/>
<path d="M1319.96 456.857C1319.96 456.857 1330.02 454.908 1331.15 455.387C1332.29 455.866 1338.61 461.559 1337.97 462.687C1337.32 463.816 1334.73 464.632 1331.79 463.66C1328.86 462.687 1322.55 462.19 1321.41 460.739C1320.28 459.287 1319.96 456.857 1319.96 456.857Z" fill="#FFF0F0"/>
<path d="M1340.01 558.836C1336.33 580.033 1316.17 593.465 1295.51 593.465H1253.84L1257.1 466.075C1257.1 466.075 1296.85 452.202 1306.84 465.4C1315.59 476.963 1339.31 522.737 1340.56 549.829C1340.7 552.842 1340.52 555.862 1340.01 558.836Z" fill="#A8C5EF"/>
<path d="M1340.01 558.836C1336.33 580.033 1316.17 593.465 1295.51 593.465H1262.16C1277.77 582.886 1298.79 553.649 1340.01 558.836Z" fill="#8EB0E1"/>
<path d="M1275.42 593.371L1274.48 593.433C1273.82 593.468 1273.16 593.489 1272.5 593.501H1271.84H1230.17V593.48L1227.76 593.509C1223.47 593.562 1218.99 593.612 1214.83 593.647L1212.78 593.665H1212.03C1207.91 593.692 1204.29 593.703 1201.7 593.686C1198.25 593.68 1194.8 593.415 1191.39 592.892C1187.44 592.301 1183.58 591.196 1179.91 589.607C1178.66 589.056 1177.44 588.437 1176.26 587.752C1174.68 586.842 1173.17 585.813 1171.74 584.673C1168.04 581.734 1164.85 577.984 1162.13 573.385C1160.12 569.93 1158.44 566.289 1157.13 562.512C1155.33 557.413 1153.87 551.609 1152.75 545.047C1151.15 535.681 1150.24 524.77 1149.96 512.163C1149.85 507.085 1149.84 501.727 1149.93 496.088C1150.08 487.076 1150.48 477.318 1151.14 466.813C1152.05 452.043 1153.46 435.751 1155.3 417.816C1156.99 401.435 1158.94 389.986 1161.77 387.377C1165.94 383.53 1174.65 381.981 1180.71 381.361C1184.47 380.976 1187.2 380.947 1187.2 380.947C1194.6 380.947 1201.17 386.26 1203.55 394.153C1208.38 410.228 1217.02 438.966 1226 469.026C1226.05 469.176 1226.09 469.32 1226.14 469.478L1227.69 474.668C1227.77 474.932 1227.85 475.197 1227.93 475.461L1229.5 474.759L1229.56 474.736C1231.71 473.781 1234.15 472.734 1236.78 471.668C1238.15 471.115 1239.56 470.559 1241.01 469.998C1245.13 468.42 1249.56 466.863 1254.06 465.523C1256.06 464.935 1258.07 464.368 1260.07 463.877C1262.63 463.239 1265.18 462.702 1267.66 462.302L1267.87 462.267L1268.76 462.134C1279.46 460.562 1288.74 461.652 1292.58 468.429C1298.73 479.282 1315.64 522.575 1316.89 549.746C1318.04 574.807 1297.56 591.711 1275.42 593.371Z" fill="#5076C9"/>
<path d="M1208.59 480.551C1208.59 480.551 1187.2 393.43 1185.66 386.107C1184.98 382.842 1182.86 381.664 1180.72 381.361C1184.48 380.976 1187.22 380.947 1187.22 380.947C1194.61 380.947 1201.19 386.236 1203.56 394.115C1208.75 411.283 1218.28 442.939 1227.96 475.185C1227.44 475.185 1208.59 480.551 1208.59 480.551Z" fill="#A8C5EF"/>
<path d="M1529.29 594H944.708C944.317 594 944 594.408 944 594.912V595.088C944 595.592 944.317 596 944.708 596H1529.29C1529.68 596 1530 595.592 1530 595.088V594.912C1530 594.408 1529.68 594 1529.29 594Z" fill="#4E92F9"/>
<defs>
<filter id="filter0_f_1770_3" x="-27" y="1888" width="1256" height="1256" filterUnits="userSpaceOnUse" color-interpolation-filters="sRGB">
<feFlood flood-opacity="0" result="BackgroundImageFix"/>
<feBlend mode="normal" in="SourceGraphic" in2="BackgroundImageFix" result="shape"/>
<feGaussianBlur stdDeviation="127" result="effect1_foregroundBlur_1770_3"/>
</filter>
<filter id="filter1_b_1770_3" x="-742" y="-562" width="1171" height="1171" filterUnits="userSpaceOnUse" color-interpolation-filters="sRGB">
<feFlood flood-opacity="0" result="BackgroundImageFix"/>
<feGaussianBlur in="BackgroundImage" stdDeviation="30"/>
<feComposite in2="SourceAlpha" operator="in" result="effect1_backgroundBlur_1770_3"/>
<feBlend mode="normal" in="SourceGraphic" in2="effect1_backgroundBlur_1770_3" result="shape"/>
</filter>
<filter id="filter2_b_1770_3" x="-4" y="-4" width="1928" height="15344" filterUnits="userSpaceOnUse" color-interpolation-filters="sRGB">
<feFlood flood-opacity="0" result="BackgroundImageFix"/>
<feGaussianBlur in="BackgroundImage" stdDeviation="2"/>
<feComposite in2="SourceAlpha" operator="in" result="effect1_backgroundBlur_1770_3"/>
<feBlend mode="normal" in="SourceGraphic" in2="effect1_backgroundBlur_1770_3" result="shape"/>
</filter>
<filter id="filter3_f_1770_3" x="-191" y="6734" width="869" height="869" filterUnits="userSpaceOnUse" color-interpolation-filters="sRGB">
<feFlood flood-opacity="0" result="BackgroundImageFix"/>
<feBlend mode="normal" in="SourceGraphic" in2="BackgroundImageFix" result="shape"/>
<feGaussianBlur stdDeviation="102" result="effect1_foregroundBlur_1770_3"/>
</filter>
<filter id="filter4_f_1770_3" x="346" y="7203" width="860" height="860" filterUnits="userSpaceOnUse" color-interpolation-filters="sRGB">
<feFlood flood-opacity="0" result="BackgroundImageFix"/>
<feBlend mode="normal" in="SourceGraphic" in2="BackgroundImageFix" result="shape"/>
<feGaussianBlur stdDeviation="72" result="effect1_foregroundBlur_1770_3"/>
</filter>
<filter id="filter5_f_1770_3" x="578" y="7236" width="869" height="869" filterUnits="userSpaceOnUse" color-interpolation-filters="sRGB">
<feFlood flood-opacity="0" result="BackgroundImageFix"/>
<feBlend mode="normal" in="SourceGraphic" in2="BackgroundImageFix" result="shape"/>
<feGaussianBlur stdDeviation="102" result="effect1_foregroundBlur_1770_3"/>
</filter>
<filter id="filter6_f_1770_3" x="977" y="7024" width="975" height="975" filterUnits="userSpaceOnUse" color-interpolation-filters="sRGB">
<feFlood flood-opacity="0" result="BackgroundImageFix"/>
<feBlend mode="normal" in="SourceGraphic" in2="BackgroundImageFix" result="shape"/>
<feGaussianBlur stdDeviation="102" result="effect1_foregroundBlur_1770_3"/>
</filter>
<filter id="filter7_f_1770_3" x="-153" y="7167" width="869" height="869" filterUnits="userSpaceOnUse" color-interpolation-filters="sRGB">
<feFlood flood-opacity="0" result="BackgroundImageFix"/>
<feBlend mode="normal" in="SourceGraphic" in2="BackgroundImageFix" result="shape"/>
<feGaussianBlur stdDeviation="102" result="effect1_foregroundBlur_1770_3"/>
</filter>
<filter id="filter8_f_1770_3" x="1346" y="6290" width="1038" height="1038" filterUnits="userSpaceOnUse" color-interpolation-filters="sRGB">
<feFlood flood-opacity="0" result="BackgroundImageFix"/>
<feBlend mode="normal" in="SourceGraphic" in2="BackgroundImageFix" result="shape"/>
<feGaussianBlur stdDeviation="49" result="effect1_foregroundBlur_1770_3"/>
</filter>
<filter id="filter9_b_1770_3" x="-155" y="-423" width="2229" height="9305" filterUnits="userSpaceOnUse" color-interpolation-filters="sRGB">
<feFlood flood-opacity="0" result="BackgroundImageFix"/>
<feGaussianBlur in="BackgroundImage" stdDeviation="77"/>
<feComposite in2="SourceAlpha" operator="in" result="effect1_backgroundBlur_1770_3"/>
<feBlend mode="normal" in="SourceGraphic" in2="effect1_backgroundBlur_1770_3" result="shape"/>
</filter>
<radialGradient id="paint0_radial_1770_3" cx="0" cy="0" r="1" gradientUnits="userSpaceOnUse" gradientTransform="translate(538 2534.5) rotate(-145.381) scale(377.91)">
<stop stop-color="#FFBD30"/>
<stop offset="1" stop-color="#FFDD94"/>
<stop offset="1" stop-color="#FFC13C" stop-opacity="0"/>
</radialGradient>
<linearGradient id="paint1_linear_1770_3" x1="0" y1="0" x2="2718.28" y2="142.824" gradientUnits="userSpaceOnUse">
<stop stop-color="#C381DB"/>
<stop offset="1" stop-color="#4E92F9"/>
</linearGradient>
<radialGradient id="paint2_radial_1770_3" cx="0" cy="0" r="1" gradientUnits="userSpaceOnUse" gradientTransform="translate(324.853 7177.74) rotate(71.2563) scale(253.171)">
<stop stop-color="#FFD600"/>
<stop offset="1" stop-color="#FFC700" stop-opacity="0"/>
</radialGradient>
<linearGradient id="paint3_linear_1770_3" x1="776" y1="7347" x2="977.882" y2="7941.94" gradientUnits="userSpaceOnUse">
<stop stop-color="#4E92F9" stop-opacity="0.37"/>
<stop offset="1" stop-color="#4E92F9" stop-opacity="0"/>
</linearGradient>
<linearGradient id="paint4_linear_1770_3" x1="1012.5" y1="7440" x2="1175.21" y2="7919.49" gradientUnits="userSpaceOnUse">
<stop stop-color="#FF1C00"/>
<stop offset="1" stop-color="#FF1C00" stop-opacity="0"/>
</linearGradient>
<radialGradient id="paint5_radial_1770_3" cx="0" cy="0" r="1" gradientUnits="userSpaceOnUse" gradientTransform="translate(1564.56 7522.87) rotate(71.2563) scale(311.384)">
<stop stop-color="#FFD600"/>
<stop offset="1" stop-color="#FFC700" stop-opacity="0"/>
</radialGradient>
<radialGradient id="paint6_radial_1770_3" cx="0" cy="0" r="1" gradientUnits="userSpaceOnUse" gradientTransform="translate(362.853 7610.74) rotate(71.2563) scale(253.171)">
<stop stop-color="#4E92F9"/>
<stop offset="1" stop-color="#4E92F9" stop-opacity="0"/>
</radialGradient>
<radialGradient id="paint7_radial_1770_3" cx="0" cy="0" r="1" gradientUnits="userSpaceOnUse" gradientTransform="translate(2013.59 6825.88) rotate(45) scale(1035.51)">
<stop stop-color="#4E92F9" stop-opacity="0.69"/>
<stop offset="1" stop-color="#4E92F9" stop-opacity="0"/>
</radialGradient>
<linearGradient id="paint8_linear_1770_3" x1="1955.5" y1="835" x2="1570.5" y2="-388" gradientUnits="userSpaceOnUse">
<stop stop-color="#EFAB18"/>
<stop offset="1" stop-color="#FFF0D0"/>
</linearGradient>
<linearGradient id="paint9_linear_1770_3" x1="1202.5" y1="728" x2="1854.67" y2="-170.402" gradientUnits="userSpaceOnUse">
<stop stop-color="#CD8BE6"/>
<stop offset="1" stop-color="#4B95FF"/>
</linearGradient>
</defs>
</svg>
